<svg xmlns="http://www.w3.org/2000/svg" width="300" height="300"><path d="M209.928 277.608V240.14c0-.291.988-.527 2.217-.527h13.71c1.23 0 2.217.236 2.217.527v26.23a132.258 132.258 0 0 0 54.186-106.345A132.258 132.258 0 0 0 150 27.766 132.258 132.258 0 0 0 17.742 160.024a132.258 132.258 0 0 0 54.186 106.733v-26.618c0-.291.988-.527 2.217-.527h13.71c1.23 0 2.217.236 2.217.527v37.743a132.258 132.258 0 0 0 59.928 14.4 132.258 132.258 0 0 0 59.928-14.674z" style="display:inline;fill:#d9d9d9;fill-opacity:1;stroke-width:2.49357;stroke-linecap:round;stroke-linejoin:round"/><g transform="matrix(-1 0 0 -.88832 297.488 277.7)"><path d="M207.56-.205v42.487c0 .329 1.09.594 2.444.594h15.113c1.354 0 2.443-.265 2.443-.594V12.32a145.783 148.885 0 0 0-20-12.524zM87.56.103a145.783 148.885 0 0 0-20 12.651v29.528c0 .329 1.09.594 2.444.594h15.113c1.354 0 2.443-.265 2.443-.594z" style="fill:#3a3226;stroke-width:2.81263;stroke-linecap:round;stroke-linejoin:round"/><rect width="20" height="254.032" x="207.56" y="30.379" ry="9.073" style="fill:#3a3226;fill-opacity:1;stroke-width:2.65089;stroke-linecap:round;stroke-linejoin:round"/><rect width="20" height="254.032" x="67.56" y="30.379" ry="9.073" style="fill:#3a3226;fill-opacity:1;stroke-width:2.65088;stroke-linecap:round;stroke-linejoin:round"/></g><g transform="matrix(1 0 0 1.32857 -.403 -34.179)"><rect width="140.726" height="22.581" x="79.839" y="86.694" ry="2.218" style="fill:#fff;fill-opacity:1;stroke-width:2.62647;stroke-linecap:round;stroke-linejoin:round"/><rect width="116.98" height="22.581" x="91.868" y="86.694" ry="0" style="fill:#0c4842;fill-opacity:1;stroke-width:2.39464;stroke-linecap:round;stroke-linejoin:round"/></g><g transform="matrix(1 0 0 1.32857 -.403 34.265)"><rect width="140.726" height="22.581" x="79.839" y="86.694" ry="2.218" style="fill:#fff;fill-opacity:1;stroke-width:2.62647;stroke-linecap:round;stroke-linejoin:round"/><rect width="116.98" height="22.581" x="91.868" y="86.694" ry="0" style="fill:#0c4842;fill-opacity:1;stroke-width:2.39464;stroke-linecap:round;stroke-linejoin:round"/></g><g transform="matrix(1 0 0 1.32857 -.403 102.265)"><rect width="140.726" height="22.581" x="79.839" y="86.694" ry="2.218" style="fill:#fff;fill-opacity:1;stroke-width:2.62647;stroke-linecap:round;stroke-linejoin:round"/><rect width="116.98" height="22.581" x="91.868" y="86.694" ry="0" style="fill:#0c4842;fill-opacity:1;stroke-width:2.39464;stroke-linecap:round;stroke-linejoin:round"/></g></svg>